<?xml version="1.0" encoding="UTF-8" standalone="no"?>
<!-- Created with Inkscape (http://www.inkscape.org/) -->
<svg
   xmlns:dc="http://purl.org/dc/elements/1.1/"
   xmlns:cc="http://creativecommons.org/ns#"
   xmlns:rdf="http://www.w3.org/1999/02/22-rdf-syntax-ns#"
   xmlns:svg="http://www.w3.org/2000/svg"
   xmlns="http://www.w3.org/2000/svg"
   xmlns:xlink="http://www.w3.org/1999/xlink"
   xmlns:sodipodi="http://sodipodi.sourceforge.net/DTD/sodipodi-0.dtd"
   xmlns:inkscape="http://www.inkscape.org/namespaces/inkscape"
   width="128"
   height="128"
   id="svg13405"
   sodipodi:version="0.32"
   inkscape:version="0.46"
   version="1.0"
   sodipodi:docname="album.svg"
   inkscape:output_extension="org.inkscape.output.svg.inkscape"
   inkscape:export-filename="/home/immanuel/archive/prj/cream/art/creamlooks-icontheme/icons/scalable/devices/gnome-dev-cdrom.png"
   inkscape:export-xdpi="90"
   inkscape:export-ydpi="90">
  <defs
     id="defs13407">
    <linearGradient
       id="linearGradient3251">
      <stop
         style="stop-color:#cbcbcb;stop-opacity:1;"
         offset="0"
         id="stop3253" />
      <stop
         id="stop3255"
         offset="0.26966581"
         style="stop-color:#ffffff;stop-opacity:1;" />
      <stop
         style="stop-color:#f0f0f0;stop-opacity:1;"
         offset="0.56759375"
         id="stop3257" />
      <stop
         id="stop3259"
         offset="0.73271602"
         style="stop-color:#cbcbcb;stop-opacity:1;" />
      <stop
         id="stop3261"
         offset="1"
         style="stop-color:#f0f0f0;stop-opacity:1;" />
    </linearGradient>
    <linearGradient
       inkscape:collect="always"
       id="linearGradient3218">
      <stop
         style="stop-color:#ffffff;stop-opacity:1;"
         offset="0"
         id="stop3220" />
      <stop
         style="stop-color:#ffffff;stop-opacity:0;"
         offset="1"
         id="stop3222" />
    </linearGradient>
    <linearGradient
       id="linearGradient3493">
      <stop
         id="stop3495"
         offset="0"
         style="stop-color:#cbcbcb;stop-opacity:1;" />
      <stop
         style="stop-color:#ffffff;stop-opacity:1;"
         offset="0.46382114"
         id="stop3499" />
      <stop
         id="stop3214"
         offset="0.52937645"
         style="stop-color:#f0f0f0;stop-opacity:1;" />
      <stop
         style="stop-color:#cbcbcb;stop-opacity:1;"
         offset="0.69975537"
         id="stop3241" />
      <stop
         style="stop-color:#f0f0f0;stop-opacity:1;"
         offset="1"
         id="stop3216" />
    </linearGradient>
    <filter
       inkscape:collect="always"
       id="filter3523">
      <feGaussianBlur
         inkscape:collect="always"
         stdDeviation="0.25130773"
         id="feGaussianBlur3525" />
    </filter>
    <filter
       inkscape:collect="always"
       id="filter3626">
      <feGaussianBlur
         inkscape:collect="always"
         stdDeviation="0.099627319"
         id="feGaussianBlur3628" />
    </filter>
    <filter
       inkscape:collect="always"
       id="filter3279">
      <feGaussianBlur
         inkscape:collect="always"
         stdDeviation="0.86533663"
         id="feGaussianBlur3281" />
    </filter>
    <filter
       inkscape:collect="always"
       id="filter3240">
      <feGaussianBlur
         inkscape:collect="always"
         stdDeviation="1.1695526"
         id="feGaussianBlur3242" />
    </filter>
    <linearGradient
       id="linearGradient3355">
      <stop
         style="stop-color:#efefef;stop-opacity:1;"
         offset="0"
         id="stop3357" />
      <stop
         style="stop-color:#000000;stop-opacity:1;"
         offset="1"
         id="stop3359" />
    </linearGradient>
    <linearGradient
       id="linearGradient3437">
      <stop
         id="stop3439"
         offset="0"
         style="stop-color:#000000;stop-opacity:1;" />
      <stop
         id="stop3441"
         offset="1"
         style="stop-color:#454545;stop-opacity:0;" />
    </linearGradient>
    <linearGradient
       id="linearGradient3311">
      <stop
         id="stop3313"
         offset="0"
         style="stop-color:#ffffff;stop-opacity:1;" />
      <stop
         id="stop3315"
         offset="1"
         style="stop-color:#454545;stop-opacity:1;" />
    </linearGradient>
    <linearGradient
       inkscape:collect="always"
       xlink:href="#linearGradient3493"
       id="linearGradient2652"
       gradientUnits="userSpaceOnUse"
       gradientTransform="matrix(0.7020653,0,0,0.7018555,30.595317,-1.1861404)"
       x1="8.5159569"
       y1="118.96654"
       x2="106.68949"
       y2="40.321575" />
    <linearGradient
       inkscape:collect="always"
       xlink:href="#linearGradient3251"
       id="linearGradient2654"
       gradientUnits="userSpaceOnUse"
       gradientTransform="matrix(0.6022515,0,0,0.6022515,41.205907,2.2059382)"
       x1="57.969933"
       y1="40.593632"
       x2="91.522087"
       y2="79.879341" />
    <linearGradient
       inkscape:collect="always"
       xlink:href="#linearGradient3218"
       id="linearGradient2656"
       gradientUnits="userSpaceOnUse"
       x1="0.48011727"
       y1="63.881502"
       x2="124.74255"
       y2="61.935928" />
    <linearGradient
       y2="22.451797"
       x2="25.5"
       y1="30.427322"
       x1="25.5"
       gradientUnits="userSpaceOnUse"
       id="linearGradient2796"
       xlink:href="#linearGradient3355"
       inkscape:collect="always" />
    <linearGradient
       y2="22.451797"
       x2="25.5"
       y1="30.427322"
       x1="25.5"
       gradientUnits="userSpaceOnUse"
       id="linearGradient2794"
       xlink:href="#linearGradient3355"
       inkscape:collect="always" />
    <linearGradient
       y2="22.451797"
       x2="25.5"
       y1="30.427322"
       x1="25.5"
       gradientUnits="userSpaceOnUse"
       id="linearGradient2792"
       xlink:href="#linearGradient3355"
       inkscape:collect="always" />
    <linearGradient
       y2="93.052788"
       x2="84.246452"
       y1="124.42779"
       x1="116.47054"
       gradientTransform="translate(-0.510725,0.5009)"
       gradientUnits="userSpaceOnUse"
       id="linearGradient2790"
       xlink:href="#linearGradient4293"
       inkscape:collect="always" />
    <linearGradient
       y2="116.25995"
       x2="102.77927"
       y1="104.94884"
       x1="95.454636"
       gradientTransform="translate(-0.893625,0.12857)"
       gradientUnits="userSpaceOnUse"
       id="linearGradient2788"
       xlink:href="#linearGradient3311"
       inkscape:collect="always" />
    <linearGradient
       y2="108.60571"
       x2="99.272995"
       y1="99.197289"
       x1="91.077568"
       gradientTransform="translate(-0.248662,-0.264287)"
       gradientUnits="userSpaceOnUse"
       id="linearGradient2786"
       xlink:href="#linearGradient3437"
       inkscape:collect="always" />
    <linearGradient
       y2="22.451797"
       x2="25.5"
       y1="30.427322"
       x1="25.5"
       gradientUnits="userSpaceOnUse"
       id="linearGradient2784"
       xlink:href="#linearGradient3355"
       inkscape:collect="always" />
    <linearGradient
       y2="261.26117"
       x2="-524.0368"
       y1="76.191635"
       x1="-748.75928"
       gradientTransform="translate(695.2823,-104.1509)"
       gradientUnits="userSpaceOnUse"
       id="linearGradient2782"
       xlink:href="#linearGradient3290"
       inkscape:collect="always" />
    <linearGradient
       y2="7.1500001"
       x2="31.15"
       y1="116.54688"
       x1="80.149994"
       gradientTransform="translate(-0.510725,0.5009)"
       gradientUnits="userSpaceOnUse"
       id="linearGradient2780"
       xlink:href="#linearGradient4261"
       inkscape:collect="always" />
    <linearGradient
       id="linearGradient3290">
      <stop
         style="stop-color:#f0f0f0;stop-opacity:1;"
         offset="0"
         id="stop3292" />
      <stop
         style="stop-color:#454545;stop-opacity:1;"
         offset="1"
         id="stop3294" />
    </linearGradient>
    <linearGradient
       id="linearGradient4293">
      <stop
         id="stop4295"
         offset="0"
         style="stop-color:#ffffff;stop-opacity:1;" />
      <stop
         id="stop4297"
         offset="1"
         style="stop-color:#454545;stop-opacity:1;" />
    </linearGradient>
    <linearGradient
       id="linearGradient4261">
      <stop
         style="stop-color: rgb(255, 255, 255); stop-opacity: 1;"
         offset="0"
         id="stop4263" />
      <stop
         style="stop-color: rgb(245, 245, 245); stop-opacity: 1;"
         offset="1"
         id="stop4265" />
    </linearGradient>
    <filter
       inkscape:collect="always"
       id="filter4325">
      <feGaussianBlur
         inkscape:collect="always"
         stdDeviation="1.56"
         id="feGaussianBlur4327" />
    </filter>
    <filter
       inkscape:collect="always"
       id="filter3270"
       x="-0.17145863"
       width="1.3429173"
       y="-0.18944671"
       height="1.3788934">
      <feGaussianBlur
         inkscape:collect="always"
         stdDeviation="1.9824772"
         id="feGaussianBlur3272" />
    </filter>
  </defs>
  <sodipodi:namedview
     id="base"
     pagecolor="#ffffff"
     bordercolor="#666666"
     borderopacity="1.0"
     gridtolerance="10000"
     guidetolerance="10"
     objecttolerance="10"
     inkscape:pageopacity="0.0"
     inkscape:pageshadow="2"
     inkscape:zoom="2.8"
     inkscape:cx="34.015599"
     inkscape:cy="41.390866"
     inkscape:document-units="px"
     inkscape:current-layer="layer1"
     showgrid="false"
     inkscape:showpageshadow="false"
     inkscape:window-width="1440"
     inkscape:window-height="848"
     inkscape:window-x="-8"
     inkscape:window-y="-8"
     inkscape:snap-center="true" />
  <metadata
     id="metadata13410">
    <rdf:RDF>
      <cc:Work
         rdf:about="">
        <dc:format>image/svg+xml</dc:format>
        <dc:type
           rdf:resource="http://purl.org/dc/dcmitype/StillImage" />
      </cc:Work>
    </rdf:RDF>
  </metadata>
  <g
     inkscape:label="Layer 1"
     inkscape:groupmode="layer"
     id="layer1">
    <g
       id="g2626"
       inkscape:label="Layer 1" />
    <rect
       style="opacity:0.59500002;fill:#ffffff;fill-opacity:1;fill-rule:nonzero;stroke:none;stroke-width:0.30000001;stroke-linejoin:miter;marker:none;marker-start:none;marker-mid:none;marker-end:none;stroke-miterlimit:4;stroke-dasharray:none;stroke-dashoffset:0;stroke-opacity:1;visibility:visible;display:inline;overflow:visible;enable-background:accumulate"
       id="rect3326"
       width="0.28655165"
       height="0"
       x="297.16907"
       y="-5.5252671"
       rx="0.98356944"
       ry="0" />
    <g
       transform="matrix(1.6069302,0,0,1.6069302,-61.22787,-4.4072805)"
       id="g3431">
      <path
         id="path3283"
         d="M 60.996019,6.3857142 C 27.520077,6.3857142 0.34138862,33.556265 0.34138862,67.022208 C 0.34138862,100.48815 27.520077,127.6587 60.996019,127.6587 C 94.471954,127.6587 121.6142,100.48815 121.6142,67.022208 C 121.6142,33.556263 94.471954,6.3857142 60.996019,6.3857142 z M 60.996019,45.681077 C 73.193213,45.681077 82.343517,54.828661 82.343517,67.022208 C 82.343517,79.215756 73.193213,88.363326 60.996019,88.363326 C 48.798823,88.363326 39.648501,79.215755 39.648501,67.022208 C 39.648501,54.828663 48.79884,45.681077 60.996019,45.681077 z"
         style="fill:none;fill-opacity:1;fill-rule:nonzero;stroke:#000000;stroke-width:1.8378973;stroke-linecap:butt;stroke-linejoin:miter;marker:none;marker-start:none;marker-mid:none;marker-end:none;stroke-miterlimit:4;stroke-dasharray:none;stroke-dashoffset:0;stroke-opacity:1;visibility:visible;display:inline;overflow:visible;filter:url(#filter3240);enable-background:accumulate"
         transform="matrix(0.6022515,0,0,0.6022515,41.205907,2.2059382)" />
      <path
         id="path2383"
         d="M 77.94085,6.051744 C 57.779914,6.051744 41.411509,22.415248 41.411509,42.570162 C 41.411509,62.725077 57.779914,79.088574 77.94085,79.088574 C 98.101781,79.088574 114.44823,62.725077 114.44823,42.570162 C 114.44823,22.415247 98.101781,6.051744 77.94085,6.051744 z M 77.94085,29.717434 C 85.286628,29.717434 90.797412,35.22658 90.797412,42.570162 C 90.797412,49.913744 85.286628,55.422882 77.94085,55.422882 C 70.59507,55.422882 65.084276,49.913744 65.084276,42.570162 C 65.084276,35.226581 70.59508,29.717434 77.94085,29.717434 z"
         style="opacity:0.95;fill:url(#linearGradient2652);fill-opacity:1;fill-rule:nonzero;stroke:#ffffff;stroke-width:0.3511126;stroke-linecap:butt;stroke-linejoin:miter;marker:none;marker-start:none;marker-mid:none;marker-end:none;stroke-miterlimit:4;stroke-dasharray:none;stroke-dashoffset:0;stroke-opacity:1;visibility:visible;display:inline;overflow:visible;enable-background:accumulate" />
      <path
         transform="matrix(0.6114323,0,0,0.6037025,38.71472,4.0966249)"
         sodipodi:nodetypes="csssc"
         style="fill:none;fill-opacity:1;fill-rule:nonzero;stroke:#454545;stroke-width:1.98254108;stroke-linecap:butt;stroke-linejoin:miter;marker:none;marker-start:none;marker-mid:none;marker-end:none;stroke-miterlimit:4;stroke-dasharray:none;stroke-dashoffset:0;stroke-opacity:1;visibility:visible;display:inline;overflow:visible;filter:url(#filter3279);enable-background:accumulate"
         d="M 64.197699,53.797426 C 70.204027,53.797426 74.02439,57.616666 74.02439,63.621191 C 74.02439,69.625717 70.204027,73.444959 64.197699,73.444959 C 58.191369,73.444959 54.371006,69.625715 54.371006,63.621191 C 54.371006,57.616667 58.191387,53.797426 64.197699,53.797426 z"
         id="path3450" />
      <path
         id="path3166"
         d="M 77.94085,29.717434 C 70.59508,29.717434 65.084276,35.226581 65.084276,42.570162 C 65.084276,49.913744 70.59507,55.422882 77.94085,55.422882 C 85.286628,55.422882 90.797412,49.913744 90.797412,42.570162 C 90.797412,35.22658 85.286628,29.717434 77.94085,29.717434 z M 77.94085,36.933386 C 81.387218,36.933386 83.579304,39.124827 83.579304,42.570162 C 83.579304,46.015497 81.387218,48.206939 77.94085,48.206939 C 74.494479,48.206939 72.302394,46.015496 72.302394,42.570162 C 72.302394,39.124827 74.494489,36.933386 77.94085,36.933386 z"
         style="fill:url(#linearGradient2654);fill-opacity:1;fill-rule:nonzero;stroke:#454545;stroke-width:0.30112574;stroke-linecap:butt;stroke-linejoin:miter;marker:none;marker-start:none;marker-mid:none;marker-end:none;stroke-miterlimit:4;stroke-dasharray:none;stroke-dashoffset:0;stroke-opacity:1;visibility:visible;display:inline;overflow:visible;enable-background:accumulate" />
      <path
         transform="matrix(0.520159,-0.2422175,0.2422175,0.520159,29.154607,24.748018)"
         id="path3377"
         d="M 107.97603,18.449651 C 107.84078,18.318501 107.6926,18.203758 107.55627,18.073898 C 107.90295,18.404153 108.25509,18.73009 108.5946,19.06852 C 108.38702,18.861535 108.18625,18.653524 107.97603,18.449651 z M 109.56662,20.085224 C 110.02152,20.559327 110.47343,21.032828 110.91418,21.521867 C 110.47371,21.032725 110.02099,20.559101 109.56662,20.085224 z M 111.59901,22.295431 C 112.00493,22.760945 112.39897,23.231626 112.7919,23.709937 C 112.4005,23.23313 112.00309,22.759215 111.59901,22.295431 z M 113.52088,24.616096 C 113.93757,25.142874 114.35721,25.665981 114.75794,26.207387 C 114.35826,25.667025 113.93616,25.141495 113.52088,24.616096 z M 101.61338,13.056406 C 101.22303,12.766699 100.81691,12.496869 100.42035,12.216426 C 100.81834,12.49814 101.22177,12.765486 101.61338,13.056406 z M 117.23193,29.831913 C 117.52829,30.296825 117.83055,30.772294 118.11546,31.246345 C 117.82788,30.766946 117.53097,30.301671 117.23193,29.831913 z M 97.01795,9.961689 C 96.338229,9.5435766 95.657661,9.1378992 94.963211,8.7458499 C 95.658317,9.1385691 96.337938,9.5431084 97.01795,9.961689 z M 94.278296,8.3700313 C 93.587569,7.9912087 92.905475,7.6175483 92.201441,7.2646686 C 92.901766,7.6161976 93.591492,7.9930239 94.278296,8.3700313 z M 91.847929,7.0878062 C 91.112125,6.7246965 90.36559,6.3831659 89.616383,6.0486949 C 90.362718,6.3825302 91.115317,6.7257136 91.847929,7.0878062 z M 77.06624,1.9355696 C 76.480314,1.8092316 75.888592,1.6913878 75.298559,1.5815843 C 75.890157,1.6914898 76.479078,1.8090463 77.06624,1.9355696 z M 126.74922,56.593816 C 126.83043,57.290176 126.91204,57.97596 126.96969,58.670995 C 126.91269,57.978202 126.82961,57.287296 126.74922,56.593816 z M 61.907973,0.56184471 C 61.239928,0.58157929 60.566551,0.58640835 59.897122,0.62764433 C 60.568513,0.585708 61.238511,0.5821568 61.907973,0.56184471 z M 127.14463,66.184048 C 127.12468,66.720828 127.06737,67.262458 127.03375,67.797105 C 127.0678,67.260187 127.12433,66.722803 127.14463,66.184048 z M 55.322912,1.0905649 C 54.629958,1.1845396 53.938529,1.2817525 53.24571,1.3994163 C 53.932833,1.2825268 54.636318,1.1842011 55.322912,1.0905649 z M 52.516468,1.5539175 C 51.77931,1.688111 51.042864,1.8339266 50.306652,1.995319 C 51.042729,1.8340997 51.780271,1.6880418 52.516468,1.5539175 z M 126.10383,75.354082 C 125.99393,75.945217 125.87633,76.535081 125.74984,77.121765 C 125.8761,76.536354 125.99407,75.943613 126.10383,75.354082 z M 123.78147,84.214449 C 123.53838,84.927687 123.29758,85.632205 123.02964,86.335581 C 123.29553,85.636282 123.54019,84.923094 123.78147,84.214449 z M 122.9191,86.578626 C 122.65946,87.251711 122.38311,87.925915 122.10101,88.589264 C 122.38426,87.922204 122.65863,87.255171 122.9191,86.578626 z M 79.353305,47.058382 C 78.934684,46.661694 78.495754,46.291285 78.049853,45.931112 C 80.021046,47.534354 81.742194,49.510191 83.130745,51.810179 C 82.062764,50.032943 80.799797,48.429087 79.353305,47.058382 z M 83.130745,51.810179 C 83.527474,52.467319 83.895194,53.133642 84.235102,53.843381 C 83.900005,53.13598 83.525091,52.466415 83.130745,51.810179 z M 78.049853,45.931112 C 77.201905,45.246188 76.312742,44.643474 75.376553,44.0964 C 76.305224,44.644835 77.205055,45.244008 78.049853,45.931112 z M 84.720968,54.948354 C 84.875947,55.316017 85.023153,55.673098 85.16264,56.053317 C 85.027141,55.675337 84.872547,55.314286 84.720968,54.948354 z M 29.643786,10.54184 C 28.288591,11.410602 26.961541,12.297646 25.687743,13.258815 L 50.229702,45.592854 C 50.693334,45.261062 51.172566,44.945737 51.666244,44.64303 L 29.643786,10.54184 z M 51.666244,44.64303 C 52.454327,44.159807 53.299274,43.740253 54.163534,43.339913 C 53.296442,43.736471 52.459979,44.161335 51.666244,44.64303 z M 77.797995,81.883011 C 77.338217,82.225868 76.87455,82.585459 76.383532,82.899132 L 98.38391,116.93402 C 99.728337,116.05911 101.05501,115.1612 102.31786,114.19495 L 77.797995,81.883011 z M 76.383532,82.899132 C 75.437563,83.50344 74.437443,84.052021 73.37793,84.533582 C 74.440834,84.056312 75.431284,83.502874 76.383532,82.899132 z M 95.378254,118.78945 C 94.581954,119.2465 93.767629,119.6906 92.947249,120.11468 C 93.768574,119.69043 94.58218,119.24585 95.378254,118.78945 z M 43.438965,73.941757 C 43.774061,74.64916 44.148976,75.318724 44.543322,75.974959 C 44.151633,75.326166 43.775295,74.641832 43.438965,73.941757 z M 44.543322,75.974959 C 45.531203,77.618901 46.675018,79.097653 47.989387,80.395219 C 46.687442,79.101912 45.535144,77.61781 44.543322,75.974959 z M 6.3469302,37.229427 C 6.2200714,37.503502 6.1161286,37.793167 5.9931723,38.069029 C 6.1150291,37.796105 6.2433682,37.522648 6.3690222,37.251529 L 6.3469302,37.229427 z M 52.098667,83.578204 C 51.237825,83.057989 50.411758,82.494563 49.624215,81.854026 C 50.409506,82.487587 51.23737,83.062554 52.098667,83.578204 z M 5.6173108,38.930723 C 5.3247778,39.613803 5.0235923,40.292408 4.7550221,40.985542 C 5.0233459,40.294372 5.3252764,39.611542 5.6173108,38.930723 z M 4.5338888,41.648401 C 4.2911478,42.295991 4.0479691,42.937233 3.8263068,43.592771 C 4.0480266,42.938637 4.2912554,42.29429 4.5338888,41.648401 z M 80.306518,125.01714 C 79.646608,125.19512 79.000382,125.36906 78.339752,125.52489 C 78.999853,125.36872 79.647855,125.1955 80.306518,125.01714 z M 77.544213,125.70147 C 76.844988,125.857 76.144263,125.98971 75.44489,126.12081 C 76.145444,125.98937 76.844565,125.85747 77.544213,125.70147 z M 1.8357969,50.84013 C 1.722852,51.375749 1.6473008,51.914122 1.5481409,52.453147 C 1.6467758,51.918092 1.7235856,51.371577 1.8357969,50.84013 z M 70.892715,126.8268 C 70.160294,126.90987 69.435957,126.96804 68.705055,127.02514 C 69.433419,126.96852 70.163528,126.90919 70.892715,126.8268 z M 68.285204,127.04713 C 67.397501,127.11052 66.49582,127.17551 65.61142,127.20116 C 66.500267,127.17596 67.393976,127.11042 68.285204,127.04713 z M 0.50714133,62.418679 C 0.48855322,63.217272 0.47255103,64.025625 0.48445526,64.827256 C 0.4719056,64.020128 0.48877642,63.222022 0.50714133,62.418679 z M 61.722342,127.15601 C 61.119414,127.13593 60.510678,127.10448 59.910405,127.06718 C 60.515496,127.10506 61.114943,127.13558 61.722342,127.15601 z M 0.68230785,69.003653 C 0.75486693,69.895221 0.85770388,70.784915 0.96891628,71.677471 C 0.85770273,70.78664 0.75507105,69.892483 0.68230785,69.003653 z M 0.96891628,71.677471 C 1.0870507,72.625599 1.2257382,73.580117 1.3880641,74.528098 C 1.2251827,73.577468 1.0874578,72.627011 0.96891628,71.677471 z M 55.380604,126.64623 C 54.763398,126.56297 54.159695,126.45979 53.546616,126.35852 C 54.157724,126.45964 54.765754,126.56298 55.380604,126.64623 z M 1.5204844,75.191042 C 1.6549373,75.928602 1.8002626,76.66428 1.9618859,77.400859 C 1.8005438,76.664477 1.6547685,75.927584 1.5204844,75.191042 z M 43.957052,124.01388 C 43.058389,123.71636 42.166768,123.3999 41.283537,123.06305 C 42.163676,123.3982 43.062244,123.71787 43.957052,124.01388 z M 3.9268033,84.450311 C 4.0708864,84.869695 4.1929012,85.291699 4.3463402,85.709948 C 4.4803019,86.075114 4.6259645,86.431617 4.7659201,86.792807 C 4.4696274,86.026128 4.1951653,85.233987 3.9268033,84.450311 z M 41.106785,122.97463 C 40.433251,122.71537 39.75995,122.43831 39.096148,122.15654 C 39.763647,122.43956 40.429802,122.71445 41.106785,122.97463 z M 35.16331,120.34362 C 34.608888,120.06226 34.052124,119.77883 33.506238,119.48142 C 34.051375,119.77807 34.609887,120.0631 35.16331,120.34362 z M 32.512006,118.92876 C 31.930639,118.59843 31.359444,118.26036 30.788682,117.91187 C 31.360108,118.26034 31.93021,118.59865 32.512006,118.92876 z M 9.4481686,96.339894 C 9.7665207,96.874292 10.087491,97.408678 10.420051,97.931122 C 10.085612,97.406558 9.7679938,96.876119 9.4481686,96.339894 z M 27.25372,115.56871 C 26.809661,115.25518 26.364252,114.92111 25.928132,114.59612 C 26.36718,114.92329 26.806785,115.25331 27.25372,115.56871 z M 12.916131,101.57775 C 13.311737,102.11206 13.720214,102.62731 14.131087,103.14694 C 13.720941,102.62871 13.310819,102.1102 12.916131,101.57775 z M 14.860069,104.0531 C 15.251337,104.52955 15.649022,105.00421 16.052966,105.46761 C 15.647172,105.00254 15.252881,104.53098 14.860069,104.0531 z M 16.737787,106.24117 C 17.178106,106.72989 17.631147,107.20438 18.085358,107.67781 C 17.630606,107.20422 17.178403,106.72972 16.737787,106.24117 z M 20.095701,109.68914 C 19.756668,109.36645 19.411636,109.04715 19.079473,108.71662 C 19.413202,109.04886 19.755155,109.36498 20.095701,109.68914 z"
         style="fill:url(#linearGradient2656);fill-opacity:1;fill-rule:nonzero;stroke:none;stroke-width:0.61168784;stroke-linecap:butt;stroke-linejoin:miter;marker:none;marker-start:none;marker-mid:none;marker-end:none;stroke-miterlimit:4;stroke-dasharray:none;stroke-dashoffset:0;stroke-opacity:1;visibility:visible;display:inline;overflow:visible;filter:url(#filter3523);enable-background:accumulate" />
      <path
         style="opacity:0.35;fill:#fff8c6;fill-opacity:1;fill-rule:nonzero;stroke:none;stroke-width:0.583;stroke-linecap:butt;stroke-linejoin:miter;marker:none;marker-start:none;marker-mid:none;marker-end:none;stroke-miterlimit:4;stroke-dasharray:none;stroke-dashoffset:0;stroke-opacity:1;visibility:visible;display:inline;overflow:visible;filter:url(#filter3626);enable-background:accumulate"
         d="M 121.15502,61.348403 L 82.884927,64.561448 C 83.055428,66.380008 82.995434,68.212542 82.679119,70.033735 L 120.96627,73.626926 C 121.44311,69.548538 121.50742,65.423807 121.15502,61.348403 z M 39.229637,65.964786 L 0.96635366,62.391762 C 0.75941449,65.41242 0.77107066,68.423468 1.0159976,71.434922 L 39.286087,68.221879 C 39.230295,67.470714 39.202897,66.719474 39.229637,65.964786 z"
         id="path3579"
         transform="matrix(0.6022515,0,0,0.6022515,41.205907,2.2059382)" />
      <path
         id="path3585"
         d="M 114.30524,43.992726 L 91.206241,42.809043 C 91.160628,43.90813 90.976329,44.99688 90.639984,46.05809 L 113.19763,51.30495 C 113.81267,48.909703 114.18531,46.453383 114.30524,43.992726 z"
         style="opacity:0.26000001;fill:#c6ddff;fill-opacity:1;fill-rule:nonzero;stroke:none;stroke-width:0.583;stroke-linecap:butt;stroke-linejoin:miter;marker:none;marker-start:none;marker-mid:none;marker-end:none;stroke-miterlimit:4;stroke-dasharray:none;stroke-dashoffset:0;stroke-opacity:1;visibility:visible;display:inline;overflow:visible;enable-background:accumulate"
         sodipodi:nodetypes="ccccc" />
      <path
         style="opacity:0.25;fill:#c6ddff;fill-opacity:1;fill-rule:nonzero;stroke:none;stroke-width:0.583;stroke-linecap:butt;stroke-linejoin:miter;marker:none;marker-start:none;marker-mid:none;marker-end:none;stroke-miterlimit:4;stroke-dasharray:none;stroke-dashoffset:0;stroke-opacity:1;visibility:visible;display:inline;overflow:visible;enable-background:accumulate"
         d="M 114.22295,45.345391 L 91.185049,43.291166 C 91.098006,44.38775 90.872768,45.468772 90.496628,46.516538 L 112.84029,52.610627 C 113.54525,50.240287 114.01028,47.799772 114.22295,45.345391 z"
         id="path3587"
         sodipodi:nodetypes="ccccc" />
      <path
         id="path3589"
         d="M 114.35042,41.710435 L 91.222803,41.990665 C 91.246825,43.090436 91.131784,44.188664 90.863258,45.26903 L 113.70769,49.078085 C 114.16995,46.648724 114.38641,44.173751 114.35042,41.710435 z M 64.93829,40.951633 L 42.107324,37.155723 C 41.852789,38.961331 41.729981,40.770591 41.747286,42.590147 L 64.874893,42.309917 C 64.873763,41.856282 64.889692,41.403825 64.93829,40.951633 z"
         style="opacity:0.26000001;fill:#ffd0c6;fill-opacity:1;fill-rule:nonzero;stroke:none;stroke-width:0.583;stroke-linecap:butt;stroke-linejoin:miter;marker:none;marker-start:none;marker-mid:none;marker-end:none;stroke-miterlimit:4;stroke-dasharray:none;stroke-dashoffset:0;stroke-opacity:1;visibility:visible;display:inline;overflow:visible;enable-background:accumulate" />
      <path
         id="path3618"
         d="M 64.800958,42.999244 L 41.658345,42.714051 C 41.68093,44.537371 41.834268,46.344299 42.127656,48.140132 L 64.944543,44.351404 C 64.874543,43.903202 64.821586,43.453573 64.800958,42.999244 z"
         style="opacity:0.26000001;fill:#fff8c6;fill-opacity:1;fill-rule:nonzero;stroke:none;stroke-width:0.583;stroke-linecap:butt;stroke-linejoin:miter;marker:none;marker-start:none;marker-mid:none;marker-end:none;stroke-miterlimit:4;stroke-dasharray:none;stroke-dashoffset:0;stroke-opacity:1;visibility:visible;display:inline;overflow:visible;enable-background:accumulate"
         sodipodi:nodetypes="ccccc"
         inkscape:transform-center-x="40.067594"
         inkscape:transform-center-y="4.4119408" />
      <path
         style="opacity:0.3;fill:#ffd0c6;fill-opacity:1;fill-rule:nonzero;stroke:none;stroke-width:0.583;stroke-linecap:butt;stroke-linejoin:miter;marker:none;marker-start:none;marker-mid:none;marker-end:none;stroke-miterlimit:4;stroke-dasharray:none;stroke-dashoffset:0;stroke-opacity:1;visibility:visible;display:inline;overflow:visible;enable-background:accumulate"
         d="M 64.847491,43.933181 L 41.746409,45.348055 C 41.902813,47.164795 42.188414,48.955588 42.612875,50.725027 L 65.089973,45.271149 C 64.987254,44.829295 64.901425,44.384768 64.847491,43.933181 z"
         id="path3620"
         sodipodi:nodetypes="ccccc" />
      <path
         id="path3634"
         d="M 121.15502,61.348403 L 82.884927,64.561448 C 83.055428,66.380008 82.995434,68.212542 82.679119,70.033735 L 120.96627,73.626926 C 121.44311,69.548538 121.50742,65.423807 121.15502,61.348403 z M 39.229637,65.964786 L 0.96635366,62.391762 C 0.75941449,65.41242 0.77107066,68.423468 1.0159976,71.434922 L 39.286087,68.221879 C 39.230295,67.470714 39.202897,66.719474 39.229637,65.964786 z"
         style="opacity:0.2;fill:#fff8c6;fill-opacity:1;fill-rule:nonzero;stroke:none;stroke-width:0.583;stroke-linecap:butt;stroke-linejoin:miter;marker:none;marker-start:none;marker-mid:none;marker-end:none;stroke-miterlimit:4;stroke-dasharray:none;stroke-dashoffset:0;stroke-opacity:1;visibility:visible;display:inline;overflow:visible;filter:url(#filter3626);enable-background:accumulate"
         transform="matrix(0.6013704,-3.2565064e-2,3.2565064e-2,0.6013704,39.005618,4.2571986)" />
      <path
         style="opacity:0.2;fill:#ffffff;fill-opacity:1;fill-rule:nonzero;stroke:none;stroke-width:0.61168784;stroke-linecap:butt;stroke-linejoin:miter;marker:none;marker-start:none;marker-mid:none;marker-end:none;stroke-miterlimit:4;stroke-dasharray:none;stroke-dashoffset:0;stroke-opacity:1;visibility:visible;display:inline;overflow:visible;filter:url(#filter3523);enable-background:accumulate"
         d="M 107.97603,18.449651 C 107.84078,18.318501 107.6926,18.203758 107.55627,18.073898 C 107.90295,18.404153 108.25509,18.73009 108.5946,19.06852 C 108.38702,18.861535 108.18625,18.653524 107.97603,18.449651 z M 109.56662,20.085224 C 110.02152,20.559327 110.47343,21.032828 110.91418,21.521867 C 110.47371,21.032725 110.02099,20.559101 109.56662,20.085224 z M 111.59901,22.295431 C 112.00493,22.760945 112.39897,23.231626 112.7919,23.709937 C 112.4005,23.23313 112.00309,22.759215 111.59901,22.295431 z M 113.52088,24.616096 C 113.93757,25.142874 114.35721,25.665981 114.75794,26.207387 C 114.35826,25.667025 113.93616,25.141495 113.52088,24.616096 z M 101.61338,13.056406 C 101.22303,12.766699 100.81691,12.496869 100.42035,12.216426 C 100.81834,12.49814 101.22177,12.765486 101.61338,13.056406 z M 117.23193,29.831913 C 117.52829,30.296825 117.83055,30.772294 118.11546,31.246345 C 117.82788,30.766946 117.53097,30.301671 117.23193,29.831913 z M 97.01795,9.961689 C 96.338229,9.5435766 95.657661,9.1378992 94.963211,8.7458499 C 95.658317,9.1385691 96.337938,9.5431084 97.01795,9.961689 z M 94.278296,8.3700313 C 93.587569,7.9912087 92.905475,7.6175483 92.201441,7.2646686 C 92.901766,7.6161976 93.591492,7.9930239 94.278296,8.3700313 z M 91.847929,7.0878062 C 91.112125,6.7246965 90.36559,6.3831659 89.616383,6.0486949 C 90.362718,6.3825302 91.115317,6.7257136 91.847929,7.0878062 z M 77.06624,1.9355696 C 76.480314,1.8092316 75.888592,1.6913878 75.298559,1.5815843 C 75.890157,1.6914898 76.479078,1.8090463 77.06624,1.9355696 z M 126.74922,56.593816 C 126.83043,57.290176 126.91204,57.97596 126.96969,58.670995 C 126.91269,57.978202 126.82961,57.287296 126.74922,56.593816 z M 61.907973,0.56184471 C 61.239928,0.58157929 60.566551,0.58640835 59.897122,0.62764433 C 60.568513,0.585708 61.238511,0.5821568 61.907973,0.56184471 z M 127.14463,66.184048 C 127.12468,66.720828 127.06737,67.262458 127.03375,67.797105 C 127.0678,67.260187 127.12433,66.722803 127.14463,66.184048 z M 55.322912,1.0905649 C 54.629958,1.1845396 53.938529,1.2817525 53.24571,1.3994163 C 53.932833,1.2825268 54.636318,1.1842011 55.322912,1.0905649 z M 52.516468,1.5539175 C 51.77931,1.688111 51.042864,1.8339266 50.306652,1.995319 C 51.042729,1.8340997 51.780271,1.6880418 52.516468,1.5539175 z M 126.10383,75.354082 C 125.99393,75.945217 125.87633,76.535081 125.74984,77.121765 C 125.8761,76.536354 125.99407,75.943613 126.10383,75.354082 z M 123.78147,84.214449 C 123.53838,84.927687 123.29758,85.632205 123.02964,86.335581 C 123.29553,85.636282 123.54019,84.923094 123.78147,84.214449 z M 122.9191,86.578626 C 122.65946,87.251711 122.38311,87.925915 122.10101,88.589264 C 122.38426,87.922204 122.65863,87.255171 122.9191,86.578626 z M 79.353305,47.058382 C 78.934684,46.661694 78.495754,46.291285 78.049853,45.931112 C 80.021046,47.534354 81.742194,49.510191 83.130745,51.810179 C 82.062764,50.032943 80.799797,48.429087 79.353305,47.058382 z M 83.130745,51.810179 C 83.527474,52.467319 83.895194,53.133642 84.235102,53.843381 C 83.900005,53.13598 83.525091,52.466415 83.130745,51.810179 z M 78.049853,45.931112 C 77.201905,45.246188 76.312742,44.643474 75.376553,44.0964 C 76.305224,44.644835 77.205055,45.244008 78.049853,45.931112 z M 84.720968,54.948354 C 84.875947,55.316017 85.023153,55.673098 85.16264,56.053317 C 85.027141,55.675337 84.872547,55.314286 84.720968,54.948354 z M 29.643786,10.54184 C 28.288591,11.410602 26.961541,12.297646 25.687743,13.258815 L 50.229702,45.592854 C 50.693334,45.261062 51.172566,44.945737 51.666244,44.64303 L 29.643786,10.54184 z M 51.666244,44.64303 C 52.454327,44.159807 53.299274,43.740253 54.163534,43.339913 C 53.296442,43.736471 52.459979,44.161335 51.666244,44.64303 z M 77.797995,81.883011 C 77.338217,82.225868 76.87455,82.585459 76.383532,82.899132 L 98.38391,116.93402 C 99.728337,116.05911 101.05501,115.1612 102.31786,114.19495 L 77.797995,81.883011 z M 76.383532,82.899132 C 75.437563,83.50344 74.437443,84.052021 73.37793,84.533582 C 74.440834,84.056312 75.431284,83.502874 76.383532,82.899132 z M 95.378254,118.78945 C 94.581954,119.2465 93.767629,119.6906 92.947249,120.11468 C 93.768574,119.69043 94.58218,119.24585 95.378254,118.78945 z M 43.438965,73.941757 C 43.774061,74.64916 44.148976,75.318724 44.543322,75.974959 C 44.151633,75.326166 43.775295,74.641832 43.438965,73.941757 z M 44.543322,75.974959 C 45.531203,77.618901 46.675018,79.097653 47.989387,80.395219 C 46.687442,79.101912 45.535144,77.61781 44.543322,75.974959 z M 6.3469302,37.229427 C 6.2200714,37.503502 6.1161286,37.793167 5.9931723,38.069029 C 6.1150291,37.796105 6.2433682,37.522648 6.3690222,37.251529 L 6.3469302,37.229427 z M 52.098667,83.578204 C 51.237825,83.057989 50.411758,82.494563 49.624215,81.854026 C 50.409506,82.487587 51.23737,83.062554 52.098667,83.578204 z M 5.6173108,38.930723 C 5.3247778,39.613803 5.0235923,40.292408 4.7550221,40.985542 C 5.0233459,40.294372 5.3252764,39.611542 5.6173108,38.930723 z M 4.5338888,41.648401 C 4.2911478,42.295991 4.0479691,42.937233 3.8263068,43.592771 C 4.0480266,42.938637 4.2912554,42.29429 4.5338888,41.648401 z M 80.306518,125.01714 C 79.646608,125.19512 79.000382,125.36906 78.339752,125.52489 C 78.999853,125.36872 79.647855,125.1955 80.306518,125.01714 z M 77.544213,125.70147 C 76.844988,125.857 76.144263,125.98971 75.44489,126.12081 C 76.145444,125.98937 76.844565,125.85747 77.544213,125.70147 z M 1.8357969,50.84013 C 1.722852,51.375749 1.6473008,51.914122 1.5481409,52.453147 C 1.6467758,51.918092 1.7235856,51.371577 1.8357969,50.84013 z M 70.892715,126.8268 C 70.160294,126.90987 69.435957,126.96804 68.705055,127.02514 C 69.433419,126.96852 70.163528,126.90919 70.892715,126.8268 z M 68.285204,127.04713 C 67.397501,127.11052 66.49582,127.17551 65.61142,127.20116 C 66.500267,127.17596 67.393976,127.11042 68.285204,127.04713 z M 0.50714133,62.418679 C 0.48855322,63.217272 0.47255103,64.025625 0.48445526,64.827256 C 0.4719056,64.020128 0.48877642,63.222022 0.50714133,62.418679 z M 61.722342,127.15601 C 61.119414,127.13593 60.510678,127.10448 59.910405,127.06718 C 60.515496,127.10506 61.114943,127.13558 61.722342,127.15601 z M 0.68230785,69.003653 C 0.75486693,69.895221 0.85770388,70.784915 0.96891628,71.677471 C 0.85770273,70.78664 0.75507105,69.892483 0.68230785,69.003653 z M 0.96891628,71.677471 C 1.0870507,72.625599 1.2257382,73.580117 1.3880641,74.528098 C 1.2251827,73.577468 1.0874578,72.627011 0.96891628,71.677471 z M 55.380604,126.64623 C 54.763398,126.56297 54.159695,126.45979 53.546616,126.35852 C 54.157724,126.45964 54.765754,126.56298 55.380604,126.64623 z M 1.5204844,75.191042 C 1.6549373,75.928602 1.8002626,76.66428 1.9618859,77.400859 C 1.8005438,76.664477 1.6547685,75.927584 1.5204844,75.191042 z M 43.957052,124.01388 C 43.058389,123.71636 42.166768,123.3999 41.283537,123.06305 C 42.163676,123.3982 43.062244,123.71787 43.957052,124.01388 z M 3.9268033,84.450311 C 4.0708864,84.869695 4.1929012,85.291699 4.3463402,85.709948 C 4.4803019,86.075114 4.6259645,86.431617 4.7659201,86.792807 C 4.4696274,86.026128 4.1951653,85.233987 3.9268033,84.450311 z M 41.106785,122.97463 C 40.433251,122.71537 39.75995,122.43831 39.096148,122.15654 C 39.763647,122.43956 40.429802,122.71445 41.106785,122.97463 z M 35.16331,120.34362 C 34.608888,120.06226 34.052124,119.77883 33.506238,119.48142 C 34.051375,119.77807 34.609887,120.0631 35.16331,120.34362 z M 32.512006,118.92876 C 31.930639,118.59843 31.359444,118.26036 30.788682,117.91187 C 31.360108,118.26034 31.93021,118.59865 32.512006,118.92876 z M 9.4481686,96.339894 C 9.7665207,96.874292 10.087491,97.408678 10.420051,97.931122 C 10.085612,97.406558 9.7679938,96.876119 9.4481686,96.339894 z M 27.25372,115.56871 C 26.809661,115.25518 26.364252,114.92111 25.928132,114.59612 C 26.36718,114.92329 26.806785,115.25331 27.25372,115.56871 z M 12.916131,101.57775 C 13.311737,102.11206 13.720214,102.62731 14.131087,103.14694 C 13.720941,102.62871 13.310819,102.1102 12.916131,101.57775 z M 14.860069,104.0531 C 15.251337,104.52955 15.649022,105.00421 16.052966,105.46761 C 15.647172,105.00254 15.252881,104.53098 14.860069,104.0531 z M 16.737787,106.24117 C 17.178106,106.72989 17.631147,107.20438 18.085358,107.67781 C 17.630606,107.20422 17.178403,106.72972 16.737787,106.24117 z M 20.095701,109.68914 C 19.756668,109.36645 19.411636,109.04715 19.079473,108.71662 C 19.413202,109.04886 19.755155,109.36498 20.095701,109.68914 z"
         id="path3636"
         transform="matrix(0.4852912,-0.306149,0.306149,0.4852912,27.297341,31.052215)" />
      <path
         transform="matrix(0.7020653,0,0,0.7018555,23.148795,-4.0220641)"
         d="M 78.03125,46.5625 C 66.75735,46.5625 58.21875,55.1011 58.21875,66.375 C 58.21875,77.6489 66.75735,86.1875 78.03125,86.1875 C 89.305155,86.1875 97.84375,77.648903 97.84375,66.375 C 97.84375,55.101097 89.305155,46.5625 78.03125,46.5625 z"
         id="path2387"
         style="opacity:0.65;fill:none;fill-opacity:1;fill-rule:nonzero;stroke:#ffffff;stroke-width:3.0002737;stroke-linecap:butt;stroke-linejoin:miter;marker:none;marker-start:none;marker-mid:none;marker-end:none;stroke-miterlimit:4;stroke-dasharray:none;stroke-dashoffset:0;stroke-opacity:0.84263958;visibility:visible;display:inline;overflow:visible;enable-background:accumulate"
         inkscape:original="M 78.03125 14.34375 C 49.314633 14.34375 26 37.658383 26 66.375 C 26 95.091617 49.314633 118.40625 78.03125 118.40625 C 106.74787 118.40625 130.0625 95.091617 130.0625 66.375 C 130.0625 37.658383 106.74787 14.34375 78.03125 14.34375 z "
         inkscape:radius="-32.226273"
         sodipodi:type="inkscape:offset" />
      <path
         style="opacity:0.45;fill:#ffffff;fill-opacity:1;fill-rule:nonzero;stroke:none;stroke-width:0.5;stroke-linecap:butt;stroke-linejoin:miter;marker:none;marker-start:none;marker-mid:none;marker-end:none;stroke-miterlimit:4;stroke-dasharray:none;stroke-dashoffset:0;stroke-opacity:1;visibility:visible;display:inline;overflow:visible;enable-background:accumulate"
         d="M 77.94085,29.717434 C 70.59508,29.717434 65.084276,35.226581 65.084276,42.570162 C 65.084276,49.913744 70.59507,55.422882 77.94085,55.422882 C 85.286628,55.422882 90.797412,49.913744 90.797412,42.570162 C 90.797412,35.22658 85.286628,29.717434 77.94085,29.717434 z M 77.94085,36.933386 C 81.387218,36.933386 83.579304,39.124827 83.579304,42.570162 C 83.579304,46.015497 81.387218,48.206939 77.94085,48.206939 C 74.494479,48.206939 72.302394,46.015496 72.302394,42.570162 C 72.302394,39.124827 74.494489,36.933386 77.94085,36.933386 z"
         id="path3263" />
      <path
         style="opacity:0.1;fill:#ffffff;fill-opacity:1;fill-rule:nonzero;stroke:#ffffff;stroke-width:0.3511126;stroke-linecap:butt;stroke-linejoin:miter;marker:none;marker-start:none;marker-mid:none;marker-end:none;stroke-miterlimit:4;stroke-dasharray:none;stroke-dashoffset:0;stroke-opacity:1;visibility:visible;display:inline;overflow:visible;enable-background:accumulate"
         d="M 77.940844,6.051748 C 57.779909,6.051748 41.411508,22.415252 41.411508,42.570166 C 41.411508,62.725081 57.779909,79.088574 77.940844,79.088574 C 98.101779,79.088574 114.44824,62.725081 114.44824,42.570166 C 114.44824,22.415251 98.101779,6.051748 77.940844,6.051748 z M 77.940844,29.717438 C 85.286623,29.717438 90.79741,35.226584 90.79741,42.570166 C 90.79741,49.913751 85.286623,55.422882 77.940844,55.422882 C 70.595065,55.422882 65.084273,49.913745 65.084273,42.570166 C 65.084273,35.226585 70.595078,29.717438 77.940844,29.717438 z"
         id="path3265" />
    </g>
  </g>
</svg>
